<svg xmlns="http://www.w3.org/2000/svg" width="115" height="51" viewBox="0 0 115 51">
  <g id="Group_8117" data-name="Group 8117" transform="translate(-26 -85)">
    <g id="Group_7507" data-name="Group 7507" transform="translate(-44 72.714)">
      <g id="Group_7505" data-name="Group 7505" transform="translate(70 12.286)">
        <rect id="Rectangle_3490" data-name="Rectangle 3490" width="115" height="51" rx="25.5" fill="#6eb7e2"/>
        <circle id="Ellipse_3537" data-name="Ellipse 3537" cx="21.5" cy="21.5" r="21.5" transform="translate(68 4)" fill="#fff"/>
      </g>
    </g>
    <g id="Group_7533" data-name="Group 7533" transform="translate(41 92.999)">
      <path id="Path_1594" data-name="Path 1594" d="M110.165,99.082A11.082,11.082,0,1,1,99.082,88,11.082,11.082,0,0,1,110.165,99.082Z" transform="translate(-81.584 -81.584)" fill="#fdb62f"/>
      <g id="Group_7532" data-name="Group 7532">
        <path id="Path_1596" data-name="Path 1596" d="M232.583,432h0a.583.583,0,0,1,.583.583v2.333a.583.583,0,0,1-.583.583h0a.583.583,0,0,1-.583-.583v-2.333A.583.583,0,0,1,232.583,432Z" transform="translate(-215.085 -400.503)" fill="#fdd384"/>
        <path id="Path_1597" data-name="Path 1597" d="M232.583,0h0a.583.583,0,0,1,.583.583V2.916a.583.583,0,0,1-.583.583h0A.583.583,0,0,1,232,2.916V.583A.583.583,0,0,1,232.583,0Z" transform="translate(-215.085)" fill="#fdd384"/>
        <path id="Path_1598" data-name="Path 1598" d="M332.288,405.278h0a.583.583,0,0,1,.8.213l1.167,2.021a.583.583,0,0,1-.214.8h0a.583.583,0,0,1-.8-.213l-1.167-2.021A.583.583,0,0,1,332.288,405.278Z" transform="translate(-307.791 -375.657)" fill="#fdd384"/>
        <path id="Path_1599" data-name="Path 1599" d="M116.293,31.16h0a.583.583,0,0,1,.8.213l1.167,2.021a.583.583,0,0,1-.213.8h0a.583.583,0,0,1-.8-.213l-1.167-2.021A.583.583,0,0,1,116.293,31.16Z" transform="translate(-107.543 -28.816)" fill="#fdd384"/>
        <path id="Path_1600" data-name="Path 1600" d="M405.286,332.288h0a.583.583,0,0,1,.8-.213l2.021,1.167a.583.583,0,0,1,.214.8h0a.583.583,0,0,1-.8.214l-2.021-1.167A.583.583,0,0,1,405.286,332.288Z" transform="translate(-375.664 -307.791)" fill="#fdd384"/>
        <path id="Path_1601" data-name="Path 1601" d="M31.157,116.292h0a.583.583,0,0,1,.8-.213l2.021,1.166a.583.583,0,0,1,.214.8h0a.583.583,0,0,1-.8.213l-2.021-1.167A.583.583,0,0,1,31.157,116.292Z" transform="translate(-28.813 -107.542)" fill="#fdd384"/>
        <path id="Path_1602" data-name="Path 1602" d="M432.583,232h2.333a.583.583,0,0,1,.583.583h0a.583.583,0,0,1-.583.583h-2.333a.583.583,0,0,1-.583-.583h0A.583.583,0,0,1,432.583,232Z" transform="translate(-400.503 -215.085)" fill="#fdd384"/>
        <path id="Path_1603" data-name="Path 1603" d="M.583,232H2.916a.583.583,0,0,1,.583.583h0a.583.583,0,0,1-.583.583H.583A.583.583,0,0,1,0,232.583H0A.583.583,0,0,1,.583,232Z" transform="translate(0 -215.085)" fill="#fdd384"/>
        <path id="Path_1604" data-name="Path 1604" d="M405.5,117.245l2.021-1.166a.583.583,0,0,1,.8.213h0a.583.583,0,0,1-.213.8l-2.021,1.166a.583.583,0,0,1-.8-.214h0A.583.583,0,0,1,405.5,117.245Z" transform="translate(-375.663 -107.542)" fill="#fdd384"/>
        <path id="Path_1605" data-name="Path 1605" d="M31.373,333.245l2.021-1.167a.583.583,0,0,1,.8.214h0a.583.583,0,0,1-.214.8l-2.021,1.166a.583.583,0,0,1-.8-.214h0A.583.583,0,0,1,31.373,333.245Z" transform="translate(-28.815 -307.795)" fill="#fdd384"/>
        <path id="Path_1606" data-name="Path 1606" d="M332.079,33.4l1.167-2.021a.583.583,0,0,1,.8-.213h0a.583.583,0,0,1,.213.8l-1.166,2.021a.583.583,0,0,1-.8.214h0A.583.583,0,0,1,332.079,33.4Z" transform="translate(-307.795 -28.82)" fill="#fdd384"/>
        <path id="Path_1607" data-name="Path 1607" d="M116.071,407.512l1.166-2.021a.583.583,0,0,1,.8-.214h0a.583.583,0,0,1,.214.8l-1.166,2.021a.583.583,0,0,1-.8.214h0A.583.583,0,0,1,116.071,407.512Z" transform="translate(-107.536 -375.657)" fill="#fdd384"/>
      </g>
    </g>
  </g>
</svg>
