<svg xmlns="http://www.w3.org/2000/svg" width="115" height="51" viewBox="0 0 115 51">
  <g id="Group_8114" data-name="Group 8114" transform="translate(-1523 -110)">
    <g id="Group_7538" data-name="Group 7538" transform="translate(1454 97.714)">
      <g id="Group_7505" data-name="Group 7505" transform="translate(69 12.286)">
        <rect id="Rectangle_3490" data-name="Rectangle 3490" width="115" height="51" rx="25.5" fill="#4c4c4c"/>
        <circle id="Ellipse_3537" data-name="Ellipse 3537" cx="21.5" cy="21.5" r="21.5" transform="translate(4 4)" fill="#fff"/>
      </g>
    </g>
    <g id="Group_7539" data-name="Group 7539" transform="translate(-5363.401 279)">
      <g id="Group_7536" data-name="Group 7536" transform="translate(6958.34 -155.905)">
        <g id="Group_7535" data-name="Group 7535">
          <path id="Path_1608" data-name="Path 1608" d="M55.513,141.777a15.647,15.647,0,0,1-5.353-.931A14.527,14.527,0,1,0,70.4,120.61a15.644,15.644,0,0,1,.931,5.353A15.832,15.832,0,0,1,55.513,141.777Z" transform="translate(-50.16 -120.61)" fill="#fff"/>
        </g>
      </g>
      <path id="Path_1609" data-name="Path 1609" d="M1.794,21.36a14.364,14.364,0,0,0,6.655,1.615A14.544,14.544,0,0,0,22.975,8.448,14.363,14.363,0,0,0,21.36,1.794L20.434,0l1.794.927a15.813,15.813,0,1,1-21.3,21.3L0,20.434Z" transform="translate(6955.246 -159)" fill="#fff"/>
      <path id="Path_1610" data-name="Path 1610" d="M660.683,150.234l1.706-.222,1.15,1.279.316-1.691,1.572-.7-1.511-.823-.178-1.711-1.25,1.183-1.683-.359.739,1.554Z" transform="translate(6303.659 -301.611)" fill="#fff"/>
      <path id="Path_1611" data-name="Path 1611" d="M866.683,354.234l1.706-.222,1.15,1.279.316-1.691,1.572-.7-1.511-.823-.179-1.711-1.25,1.183-1.683-.359.739,1.554Z" transform="translate(6092.373 -500.376)" fill="#fff"/>
      <path id="Path_1612" data-name="Path 1612" d="M516.683,412.234l1.706-.222,1.15,1.279.316-1.691,1.572-.7-1.511-.823-.179-1.711-1.25,1.183-1.683-.359.739,1.554Z" transform="translate(6451.354 -556.887)" fill="#fff"/>
    </g>
  </g>
</svg>
