<svg xmlns="http://www.w3.org/2000/svg" width="74.939" height="76.369" viewBox="0 0 74.939 76.369">
  <g id="Group_2039" data-name="Group 2039" transform="translate(0)">
    <path id="Path_1705" data-name="Path 1705" d="M502.352,390.454A29.693,29.693,0,0,0,464.1,414.092c2.471-8.426,12.671-10.092,22.378-6.072,8.28,3.43,16.2,11.022,18.661,21.342q7.071-14.809,6.458-33.921a89.959,89.959,0,0,0-9.243-4.987" transform="translate(-436.703 -383.888)" fill="#00a8ff"/>
    <path id="Path_1706" data-name="Path 1706" d="M432.569,385.6a29.694,29.694,0,0,0,23.936,37.25c-8.426-2.471-10.092-12.672-6.072-22.378,3.669-8.859,12.1-17.307,23.545-19.1a62.324,62.324,0,0,0-14.523-1.755,66.139,66.139,0,0,0-26.886,5.978" transform="translate(-421.985 -379.619)" fill="#3982cc" fill-rule="evenodd"/>
    <path id="Path_1707" data-name="Path 1707" d="M420.061,403.521a29.64,29.64,0,0,1,.449-9.315q-3.147,1.611-6.3,3.549-.946,30.109,17.171,49.547c.153,0,.306.01.459.013a29.675,29.675,0,0,0,29.867-25.008c-2.471,8.426-12.672,10.092-22.378,6.072-9.2-3.809-17.947-12.749-19.27-24.858" transform="translate(-414.165 -386.203)" fill="#00a8ff"/>
    <path id="Path_1708" data-name="Path 1708" d="M453.041,463.334c-.225.025-.45.046-.674.065a82.344,82.344,0,0,0,16.511,11.576q18.6-10.064,27.932-25.321a29.678,29.678,0,0,0-24.982-27.969c8.426,2.471,10.092,12.672,6.072,22.379-3.809,9.194-12.75,17.947-24.858,19.27" transform="translate(-431.408 -398.606)" fill="#3982cc" fill-rule="evenodd"/>
    <path id="Path_1709" data-name="Path 1709" d="M474.865,382.818l-41.409,4.223L449.234,411.6a26.055,26.055,0,0,1,2.086-9.682c3.669-8.859,12.1-17.306,23.545-19.1" transform="translate(-422.872 -381.063)" fill="#2758b5" fill-rule="evenodd"/>
    <path id="Path_1710" data-name="Path 1710" d="M441.135,466.4l20.433-17.108a23.944,23.944,0,0,1-12.944-1.828,32.871,32.871,0,0,1-13.871-10.975Z" transform="translate(-423.458 -405.289)" fill="#2985c2"/>
    <path id="Path_1711" data-name="Path 1711" d="M487.484,451.2A32.628,32.628,0,0,1,473.6,466.933l32.794-10.142L489.161,437.5a23.393,23.393,0,0,1-1.677,13.7" transform="translate(-440.993 -405.743)" fill="#2758b5" fill-rule="evenodd"/>
    <path id="Path_1712" data-name="Path 1712" d="M501.831,413.254c8.28,3.43,16.2,11.022,18.661,21.342l6.458-33.921L498.116,412a29.02,29.02,0,0,1,3.715,1.257" transform="translate(-452.058 -389.123)" fill="#2985c2"/>
  </g>
</svg>
