<svg xmlns="http://www.w3.org/2000/svg" width="87.301" height="87.301" viewBox="0 0 87.301 87.301">
  <g id="Group_8074" data-name="Group 8074" transform="translate(-142.062 -142.062)">
    <path id="BG" d="M320.317,327.3H246.984A7,7,0,0,1,240,320.317V246.984A7,7,0,0,1,246.984,240h73.333a7,7,0,0,1,6.984,6.984v73.333A7,7,0,0,1,320.317,327.3Z" transform="translate(-97.938 -97.938)" fill="#fff"/>
    <g id="Group_8073" data-name="Group 8073" transform="translate(153.685 204.66)">
      <path id="Path_8577" data-name="Path 8577" d="M341.269,773.508a.437.437,0,0,1-.416-.439v-11.73a.437.437,0,0,0-.416-.439H336.3a.435.435,0,0,1-.439-.416v-2.267a.457.457,0,0,1,.439-.439h12.746a.455.455,0,0,1,.439.439v2.267a.437.437,0,0,1-.439.416h-4.118a.455.455,0,0,0-.439.439v11.73a.437.437,0,0,1-.416.439Z" transform="translate(-335.856 -757.593)" fill="#ee1481"/>
      <path id="Path_8578" data-name="Path 8578" d="M479.211,758.215a.437.437,0,0,1,.416-.439H482.4a.455.455,0,0,1,.439.439v8.006c0,4.743-2.683,7.5-6.94,7.5-4.234,0-6.894-2.753-6.894-7.5v-8.006a.437.437,0,0,1,.416-.439H472.2a.455.455,0,0,1,.439.439v8.119c0,2.337,1.2,4,3.285,4s3.285-1.665,3.285-4v-8.119Z" transform="translate(-452.863 -757.593)" fill="#ee1481"/>
      <path id="Path_8579" data-name="Path 8579" d="M614.419,761.584a.593.593,0,0,1-.626-.416,3.169,3.169,0,0,0-3.169-1.851c-1.458,0-2.683.509-2.683,1.481,0,1.065,1.135,1.5,3.632,1.8,3.795.439,5.969,1.6,5.969,4.6,0,3.378-2.962,5.159-6.754,5.159-3.285,0-6.108-1.6-6.548-4.95-.047-.323.116-.439.439-.439h2.546a.573.573,0,0,1,.6.393,3.165,3.165,0,0,0,3.239,1.967c1.5,0,2.823-.556,2.823-1.734,0-1.411-1.388-1.665-4.164-2.014-3.192-.416-5.413-1.342-5.413-4.281s2.523-5.043,6.478-5.043c3.562,0,6.038,1.921,6.548,4.79.07.323-.023.532-.37.532h-2.549Z" transform="translate(-571.69 -756.264)" fill="#ee1481"/>
      <path id="Path_8580" data-name="Path 8580" d="M736.928,773.508a.437.437,0,0,1-.416-.439V758.215a.437.437,0,0,1,.416-.439h6.292c4.673,0,8.305,3.216,8.305,7.912,0,4.627-3.585,7.819-8.305,7.819Zm6.292-3.125a4.75,4.75,0,0,0-.023-9.487h-2.613a.435.435,0,0,0-.416.439v8.628a.416.416,0,0,0,.416.416h2.636Z" transform="translate(-687.932 -757.593)" fill="#ee1481"/>
    </g>
    <path id="BG-2" data-name="BG" d="M333.409,302.563H250.764A1.167,1.167,0,0,1,249.6,301.4V255.42a5.837,5.837,0,0,1,5.82-5.82h73.333a5.837,5.837,0,0,1,5.82,5.82V301.4A1.167,1.167,0,0,1,333.409,302.563Z" transform="translate(-106.374 -106.374)" fill="#ee1481"/>
    <path id="_" data-name="|" d="M574.191,363.9h-7.566a.876.876,0,0,1-.873-.873v-32.01a.876.876,0,0,1,.873-.873h7.566a.876.876,0,0,1,.873.873v32.01A.876.876,0,0,1,574.191,363.9Z" transform="translate(-384.192 -177.152)" fill="#fff"/>
    <path id="_2" data-name="—" d="M486.411,339.456H452.073a.876.876,0,0,1-.873-.873v-7.566a.876.876,0,0,1,.873-.873h34.339a.876.876,0,0,1,.873.873v7.566A.876.876,0,0,1,486.411,339.456Z" transform="translate(-283.53 -177.152)" fill="#fff"/>
  </g>
</svg>
