<svg xmlns="http://www.w3.org/2000/svg" width="85.258" height="78.724" viewBox="0 0 85.258 78.724">
  <g id="Group_8068" data-name="Group 8068" transform="translate(-373.867 -197.679)">
    <path id="Path_8497" data-name="Path 8497" d="M375.483,231.939a13.028,13.028,0,0,1,2.48-1.2,37.626,37.626,0,0,1,5.338-1.481,99.93,99.93,0,0,1,10.98-1.665c4.869-.492,9.757-.79,14.65-.935V237.99c2.369.061,4.758.1,7.188.1h.905c2.846,0,5.644-.057,8.409-.143V226.706c4.433.16,8.861.443,13.275.891a99.366,99.366,0,0,1,10.98,1.666,37.948,37.948,0,0,1,5.338,1.478,13.1,13.1,0,0,1,2.48,1.2,2.985,2.985,0,0,1,1.616,2.1,3.067,3.067,0,0,0-1.5-2.273,13.007,13.007,0,0,0-2.46-1.365,38.089,38.089,0,0,0-5.319-1.8,98.191,98.191,0,0,0-11.014-2.062c-4.448-.585-8.92-.918-13.4-1.119V214.179H449.5v-16.5H384.869v16.5h24.062V225.37c-4.937.189-9.867.531-14.773,1.178a97.48,97.48,0,0,0-11.011,2.062,37.87,37.87,0,0,0-5.319,1.8,12.94,12.94,0,0,0-2.462,1.363,3.073,3.073,0,0,0-1.5,2.273A2.981,2.981,0,0,1,375.483,231.939Z" transform="translate(0.001 0)" fill="#fff"/>
    <path id="Path_8498" data-name="Path 8498" d="M457.448,214.48a12.88,12.88,0,0,1-2.5,1.1,39.526,39.526,0,0,1-5.341,1.336c-3.616.7-7.292,1.107-10.965,1.454-7.358.64-14.756.905-22.151.893-7.393.01-14.79-.258-22.148-.9-3.673-.349-7.348-.76-10.965-1.454a39.514,39.514,0,0,1-5.341-1.336,12.79,12.79,0,0,1-2.5-1.1,2.934,2.934,0,0,1-1.675-2.017,3.121,3.121,0,0,0,1.439,2.359,13.054,13.054,0,0,0,2.445,1.464,36.848,36.848,0,0,0,5.314,1.943,86.5,86.5,0,0,0,11.029,2.271,143.591,143.591,0,0,0,14.837,1.321v33h16.5V221.752c4.5-.224,8.994-.605,13.462-1.26a85.529,85.529,0,0,0,11.026-2.271,36.3,36.3,0,0,0,5.316-1.941,13.257,13.257,0,0,0,2.445-1.461,3.121,3.121,0,0,0,1.439-2.359A2.932,2.932,0,0,1,457.448,214.48Z" transform="translate(0 21.582)" fill="#fff"/>
  </g>
</svg>
