<svg xmlns="http://www.w3.org/2000/svg" width="82.132" height="78.724" viewBox="0 0 82.132 78.724">
  <g id="Group_8075" data-name="Group 8075" transform="translate(-10.831 -12.741)">
    <path id="Path_8582" data-name="Path 8582" d="M460.49,340.492c0-7.963-4.778-10.694-14.334-11.831-6.826-.91-8.191-2.73-8.191-5.916s2.275-5.233,6.826-5.233c4.1,0,6.371,1.365,7.508,4.778a1.711,1.711,0,0,0,1.593,1.137h3.64a1.555,1.555,0,0,0,1.593-1.592v-.228a11.367,11.367,0,0,0-10.239-9.328v-5.461c0-.91-.683-1.593-1.82-1.821h-3.413c-.91,0-1.593.683-1.821,1.821v5.233c-6.826.91-11.148,5.461-11.148,11.149,0,7.508,4.55,10.466,14.106,11.6,6.371,1.137,8.419,2.5,8.419,6.143s-3.186,6.143-7.508,6.143c-5.916,0-7.964-2.5-8.646-5.916a1.662,1.662,0,0,0-1.592-1.365h-3.868A1.555,1.555,0,0,0,430,341.4v.228c.91,5.688,4.55,9.783,12.059,10.921v5.461c0,.91.683,1.592,1.82,1.82h3.413c.91,0,1.593-.683,1.821-1.82v-5.461c6.826-1.138,11.376-5.916,11.376-12.059Z" transform="translate(-393.576 -280.426)" fill="#fff"/>
    <path id="Path_8583" data-name="Path 8583" d="M178.241,246.217a34.047,34.047,0,0,1,0-63.935,2.284,2.284,0,0,0,1.365-2.275v-3.185a1.729,1.729,0,0,0-1.365-1.82,1.37,1.37,0,0,0-.91.227,40.944,40.944,0,0,0,0,78.042,1.383,1.383,0,0,0,2.048-.91c.228-.227.228-.455.228-.91v-3.186A3.031,3.031,0,0,0,178.241,246.217Zm24.118-70.988a1.383,1.383,0,0,0-2.048.91c-.228.228-.228.455-.228.91v3.185a3.018,3.018,0,0,0,1.365,2.275,34.047,34.047,0,0,1,0,63.935,2.284,2.284,0,0,0-1.365,2.275v3.185a1.729,1.729,0,0,0,1.365,1.82,1.37,1.37,0,0,0,.91-.227,41.119,41.119,0,0,0,0-78.269Z" transform="translate(-137.948 -162.261)" fill="#fff"/>
  </g>
</svg>
