<svg xmlns="http://www.w3.org/2000/svg" width="58.703" height="65.5" viewBox="0 0 58.703 65.5">
  <defs>
    <style>
      .cls-1, .cls-2, .cls-4 {
        fill: none;
      }

      .cls-1, .cls-2 {
        stroke: #59258C;
      }

      .cls-1 {
        stroke-width: 2px;
      }

      .cls-2 {
        stroke-width: 1.5px;
      }

      .cls-3 {
        stroke: none;
      }
    </style>
  </defs>
  <g id="Group_446" data-name="Group 446" transform="translate(1 -0.5)">
    <g id="like_1_" data-name="like (1)" transform="translate(0 10.833)">
      <g id="Group_441" data-name="Group 441" transform="translate(0 17.168)">
        <g id="Group_440" data-name="Group 440" transform="translate(0 0)">
          <path id="Path_2184" data-name="Path 2184" class="cls-1" d="M9.25,167.256H1.85A1.853,1.853,0,0,0,0,169.106v33.3a1.851,1.851,0,0,0,1.85,1.85h7.4a1.851,1.851,0,0,0,1.85-1.85v-33.3A1.853,1.853,0,0,0,9.25,167.256Z" transform="translate(0 -167.256)"/>
        </g>
      </g>
      <g id="Group_443" data-name="Group 443" transform="translate(14.8 0)">
        <g id="Group_442" data-name="Group 442">
          <path id="Path_2185" data-name="Path 2185" class="cls-1" d="M170.972,27.725c-.3-.05-14.248,0-14.248,0l1.949-5.3c1.344-3.658.474-9.243-3.256-11.228a6.416,6.416,0,0,0-4.28-.628,3.085,3.085,0,0,0-1.885,1.408,7.629,7.629,0,0,0-.592,2.613,11.27,11.27,0,0,1-3.138,5.976c-2.872,2.791-11.795,10.842-11.795,10.842V60.9h30.833a5.582,5.582,0,0,0,4.835-8.242,5.568,5.568,0,0,0,1.85-7.372,5.568,5.568,0,0,0,1.85-7.372A5.617,5.617,0,0,0,170.972,27.725Z" transform="translate(-133.726 -10.433)"/>
        </g>
      </g>
    </g>
    <g id="Rectangle_1882" data-name="Rectangle 1882" class="cls-2" transform="translate(32.331 0.5)">
      <rect class="cls-3" width="3" height="7" rx="1.5"/>
      <rect class="cls-4" x="0.75" y="0.75" width="1.5" height="5.5" rx="0.75"/>
    </g>
    <g id="Rectangle_1884" data-name="Rectangle 1884" class="cls-2" transform="translate(45.301 0.753) rotate(45)">
      <rect class="cls-3" width="3.333" height="7.5" rx="1.667"/>
      <rect class="cls-4" x="0.75" y="0.75" width="1.833" height="6" rx="0.917"/>
    </g>
    <g id="Rectangle_1883" data-name="Rectangle 1883" class="cls-2" transform="translate(20.831 3.11) rotate(-45)">
      <rect class="cls-3" width="3.333" height="7.5" rx="1.667"/>
      <rect class="cls-4" x="0.75" y="0.75" width="1.833" height="6" rx="0.917"/>
    </g>
  </g>
</svg>
