<svg xmlns="http://www.w3.org/2000/svg" width="59.167" height="77.5" viewBox="0 0 59.167 77.5">
  <defs>
    <style>
      .cls-1 {
        fill: none;
        stroke: #59258C;
        stroke-width: 2.5px;
      }
    </style>
  </defs>
  <g id="lock" transform="translate(1.25 1.25)">
    <g id="Group_444" data-name="Group 444" transform="translate(0)">
      <path id="Path_2186" data-name="Path 2186" class="cls-1" d="M119.093,28.125H114.37v-6.25a22.038,22.038,0,0,0-44.074,0v6.25H65.574A1.567,1.567,0,0,0,64,29.688V68.75A6.279,6.279,0,0,0,70.3,75H114.37a6.279,6.279,0,0,0,6.3-6.25V29.688A1.567,1.567,0,0,0,119.093,28.125ZM97.046,60.765a1.559,1.559,0,0,1-.392,1.215,1.58,1.58,0,0,1-1.173.52h-6.3a1.58,1.58,0,0,1-1.173-.52,1.558,1.558,0,0,1-.392-1.215l.993-8.864a6.167,6.167,0,0,1-2.576-5.026,6.3,6.3,0,0,1,12.593,0A6.167,6.167,0,0,1,96.054,51.9Zm7.879-32.64H79.741v-6.25a12.593,12.593,0,0,1,25.185,0Z" transform="translate(-64 0)"/>
    </g>
  </g>
</svg>
