<svg xmlns="http://www.w3.org/2000/svg" width="60.286" height="70.378" viewBox="0 0 60.286 70.378">
  <defs>
    <style>
      .cls-1 {
        fill: none;
        stroke: #59258C;
        stroke-width: 2.5px;
      }
    </style>
  </defs>
  <path id="Path_2187" data-name="Path 2187" class="cls-1" d="M56.592,17.16c-.081-1.754-.081-3.428-.081-5.1A2.361,2.361,0,0,0,54.1,9.666C44.032,9.666,36.384,6.8,30.023.658a2.5,2.5,0,0,0-3.381,0C20.282,6.8,12.633,9.666,2.569,9.666A2.361,2.361,0,0,0,.154,12.058c0,1.674,0,3.348-.081,5.1C-.248,33.9-.731,56.861,27.527,66.507l.805.159.805-.159C57.316,56.861,56.914,33.981,56.592,17.16ZM26.4,40.359A2.613,2.613,0,0,1,24.71,41h-.081a2.275,2.275,0,0,1-1.691-.8l-7.487-8.211L19.074,28.8l5.877,6.457L37.994,22.98l3.3,3.508Z" transform="matrix(1, 0.017, -0.017, 1, 2.396, 1.437)"/>
</svg>
