<svg xmlns="http://www.w3.org/2000/svg" width="93.992" height="93.992" viewBox="0 0 93.992 93.992">
  <path id="Path_8574" data-name="Path 8574" d="M47,0a47,47,0,1,0,47,47A47,47,0,0,0,47,0ZM68.454,36.643q.031.694.031,1.394c0,14.254-10.85,30.691-30.691,30.691h0a30.533,30.533,0,0,1-16.534-4.846,21.936,21.936,0,0,0,2.573.149,21.645,21.645,0,0,0,13.4-4.617,10.8,10.8,0,0,1-10.078-7.492,10.747,10.747,0,0,0,4.872-.185A10.79,10.79,0,0,1,23.37,41.163c0-.049,0-.093,0-.138a10.714,10.714,0,0,0,4.886,1.349,10.8,10.8,0,0,1-3.34-14.4A30.626,30.626,0,0,0,47.152,39.244a10.793,10.793,0,0,1,18.381-9.837,21.64,21.64,0,0,0,6.85-2.618,10.83,10.83,0,0,1-4.744,5.966,21.511,21.511,0,0,0,6.194-1.7A21.923,21.923,0,0,1,68.454,36.643Z" fill="#ff0"/>
</svg>
