<svg xmlns="http://www.w3.org/2000/svg" width="93.992" height="93.992" viewBox="0 0 93.992 93.992">
  <path id="Path_8573" data-name="Path 8573" d="M47,93.992A47,47,0,1,0,0,47,46.988,46.988,0,0,0,47,93.992ZM21.5,45.978,66.817,28.507c2.1-.76,3.94.513,3.258,3.693l0,0L62.364,68.544c-.572,2.577-2.1,3.2-4.245,1.989L46.369,61.874,40.7,67.334a2.963,2.963,0,0,1-2.369,1.155l.834-11.956L60.942,36.86c.948-.834-.211-1.3-1.461-.474L32.572,53.329l-11.6-3.619c-2.518-.8-2.573-2.518.533-3.732Z" fill="#ff0"/>
</svg>
