<svg id="oil-platform" xmlns="http://www.w3.org/2000/svg" width="56.667" height="56.667" viewBox="0 0 56.667 56.667">
  <defs>
    <style>
      .cls-1 {
        fill: #59258C;
      }
    </style>
  </defs>
  <g id="Group_436" data-name="Group 436">
    <g id="Group_435" data-name="Group 435">
      <rect id="Rectangle_1879" data-name="Rectangle 1879" class="cls-1" width="21.734" height="2.07" transform="translate(8.28 21.839)"/>
      <path id="Path_2154" data-name="Path 2154" class="cls-1" d="M52.1,10.968H40.215V0H3.656V11.06A4.578,4.578,0,0,0,0,15.538V46.613a4.575,4.575,0,0,0,4.57,4.57H12.8v3.656H9.14v1.828H47.527V54.839H43.871V51.183H52.1a4.575,4.575,0,0,0,4.57-4.57V15.538A4.575,4.575,0,0,0,52.1,10.968Zm-10.968,6.4a4.57,4.57,0,1,1-4.57-4.57A4.575,4.575,0,0,1,41.129,17.366ZM30.974,29.247a6.426,6.426,0,0,0-1.114-.867l3.161-5.689a6.362,6.362,0,0,0,5.367.8v5.753Zm.1,4.57a4.57,4.57,0,1,1-4.57-4.57A4.575,4.575,0,0,1,31.075,33.817ZM30.234,18.28H9.14V5.484H34.731v5.753a6.332,6.332,0,0,0-4.5,7.042ZM5.484,1.828h32.9v9.409a6.358,6.358,0,0,0-1.828-.27V3.656H7.312V20.108H30.787a6.4,6.4,0,0,0,.84,1.329l-3.451,6.212a6.331,6.331,0,0,0-6.139,1.6H5.484ZM42.043,54.839H14.624V51.183H42.043Zm12.8-8.226A2.745,2.745,0,0,1,52.1,49.355H4.57a2.745,2.745,0,0,1-2.742-2.742V45.7H54.839Zm0-2.742H1.828V15.538a2.738,2.738,0,0,1,1.828-2.574V31.075H20.734a6.4,6.4,0,1,0,11.544,0h7.938V25.123l2.343,3.75a6.36,6.36,0,1,0,1.564-.949L40.614,22.31a6.383,6.383,0,0,0,.414-9.515H52.1a2.745,2.745,0,0,1,2.742,2.742ZM46.613,29.247a4.57,4.57,0,1,1-4.57,4.57A4.575,4.575,0,0,1,46.613,29.247Z"/>
      <rect id="Rectangle_1880" data-name="Rectangle 1880" class="cls-1" width="2.07" height="2.07" transform="translate(24.569 25.478)"/>
      <rect id="Rectangle_1881" data-name="Rectangle 1881" class="cls-1" width="17.594" height="2.07" transform="translate(8.28 25.478)"/>
    </g>
  </g>
</svg>
