<svg id="worldwide" xmlns="http://www.w3.org/2000/svg" width="56.667" height="56.667" viewBox="0 0 56.667 56.667">
  <defs>
    <style>
      .cls-1 {
        fill: #59258C;
      }
    </style>
  </defs>
  <g id="Group_437" data-name="Group 437" transform="translate(0 0)">
    <path id="Path_2158" data-name="Path 2158" class="cls-1" d="M28.343.05A28.327,28.327,0,0,0,2.3,17.231l-.353.117.137.411A28.324,28.324,0,1,0,28.343.05Zm22.22,42.619-1.455-1.454V37.828a.944.944,0,0,0-.094-.422l-3.683-7.356V26.494a.945.945,0,0,0-.42-.786L42.079,23.82a.944.944,0,0,0-.755-.13l-3.469.867-5.827-2.5-.8-5.618,2.222-2.221h4.769l1.605,2.413a.944.944,0,0,0,.631.407l5.665.944a.936.936,0,0,0,.453-.036l5.218-1.74A26.355,26.355,0,0,1,50.563,42.669ZM46.669,9.357,45.133,10.38l-4.28-.857L38.076,8.6a.927.927,0,0,0-.527-.021l-3.511.877L32.5,8.943,33.64,6.661h3.193a.944.944,0,0,0,.422-.1l3.267-1.634A26.536,26.536,0,0,1,46.669,9.357ZM17.993,4.048l2.266,1.511a.943.943,0,0,0,.369.145l4.576.763L24.757,7.8l-2.384.8a.944.944,0,0,0-.511.409l-2.712,4.52-4.356,2.614-6.421.917a.944.944,0,0,0-.812.934v2.833a.944.944,0,0,0,.277.668L9.45,23.108V24.73L5.522,22.11,4.1,17.835A26.594,26.594,0,0,1,17.993,4.048ZM15.3,35.013l-4.268-.855L9.45,30.994V28.774l3.518-3.519,1.3,2.606a.944.944,0,0,0,.845.522h6.075l2.558,4.264a.944.944,0,0,0,.809.458h2.625l-.661,3.312-3.575,3.576a.945.945,0,0,0-.278.668v2.361l-3.4,2.55a.945.945,0,0,0-.378.756v3.411l-1.175-.389L16.06,45.2V35.939A.944.944,0,0,0,15.3,35.013ZM12.466,49.532a26.441,26.441,0,0,1-9.417-28.87l.785,2.354A.944.944,0,0,0,4.2,23.5l4.707,3.138L7.838,27.716a.944.944,0,0,0-.277.668v2.833a.944.944,0,0,0,.1.422l1.888,3.778a.945.945,0,0,0,.661.5l3.966.792v8.671a.945.945,0,0,0,.067.35l1.888,4.722A.944.944,0,0,0,16.71,51l2.833.944a.928.928,0,0,0,.294.049.944.944,0,0,0,.944-.944V46.8l3.4-2.55a.945.945,0,0,0,.378-.756V41.052l3.5-3.5a.945.945,0,0,0,.258-.483l.944-4.722a.944.944,0,0,0-.925-1.13H25.092l-2.558-4.264a.944.944,0,0,0-.809-.458H15.7l-1.622-3.256a.944.944,0,0,0-.694-.51.925.925,0,0,0-.819.264l-1.226,1.221v-1.5a.944.944,0,0,0-.277-.668L9.45,20.437V18.813l5.8-.828a.949.949,0,0,0,.352-.126l4.721-2.833a.944.944,0,0,0,.323-.323L23.3,10.28l2.5-.835a.935.935,0,0,0,.6-.6l.944-2.833a.945.945,0,0,0-.74-1.228l-5.465-.911-.96-.64a26.361,26.361,0,0,1,18.16.675l-1.725.861H33.056a.944.944,0,0,0-.85.522L30.318,9.072a.945.945,0,0,0,.547,1.318l2.833.944a.927.927,0,0,0,.527.021l3.511-.877,2.572.857a.694.694,0,0,0,.113.03l4.721.944a.937.937,0,0,0,.709-.14L48,10.735a26.644,26.644,0,0,1,2.84,3.8L46.194,16.08l-5.03-.839L39.5,12.748a.944.944,0,0,0-.781-.42H33.056a.944.944,0,0,0-.668.277l-2.833,2.833a.945.945,0,0,0-.267.8l.944,6.611a.944.944,0,0,0,.567.734l6.61,2.833a.933.933,0,0,0,.6.048l3.372-.843L43.443,27v3.272a.944.944,0,0,0,.094.422l3.683,7.356v3.555a.944.944,0,0,0,.277.668l1.975,1.977A26.429,26.429,0,0,1,12.466,49.532Z" transform="translate(0 -0.05)"/>
  </g>
</svg>
