<svg id="Group_8070" data-name="Group 8070" xmlns="http://www.w3.org/2000/svg" width="95.99" height="93.992" viewBox="0 0 95.99 93.992">
  <g id="Group_8069" data-name="Group 8069" transform="translate(0 0)">
    <path id="Path_8576" data-name="Path 8576" d="M47.989,12.49A48.215,48.215,0,0,0,32.829,106.4c2.4.444,3.276-1.044,3.276-2.322,0-1.146-.042-4.176-.066-8.2C22.69,98.791,19.87,89.42,19.87,89.42c-2.178-5.567-5.327-7.049-5.327-7.049-4.362-2.988.324-2.928.324-2.928,4.818.342,7.349,4.967,7.349,4.967,4.284,7.361,11.237,5.237,13.973,4a10.286,10.286,0,0,1,3.048-6.443c-10.655-1.218-21.862-5.351-21.862-23.812a18.677,18.677,0,0,1,4.943-12.935c-.5-1.218-2.142-6.119.468-12.749,0,0,4.032-1.3,13.2,4.938a45.3,45.3,0,0,1,24.034.006C69.179,31.184,73.2,32.48,73.2,32.48c2.616,6.635.972,11.531.48,12.749a18.642,18.642,0,0,1,4.931,12.935c0,18.508-11.219,22.582-21.91,23.776,1.722,1.488,3.258,4.428,3.258,8.921,0,6.443-.06,11.639-.06,13.217,0,1.29.864,2.79,3.3,2.316a48.22,48.22,0,0,0-15.214-93.9Z" transform="translate(0 -12.49)" fill="#ff0"/>
  </g>
</svg>
