<svg xmlns="http://www.w3.org/2000/svg" width="56.667" height="56.667" viewBox="0 0 56.667 56.667">
  <defs>
    <style>
      .cls-1 {
        fill: #59258C;
      }
    </style>
  </defs>
  <g id="contract" transform="translate(0 0)">
    <path id="Path_2163" data-name="Path 2163" class="cls-1" d="M225.967,98.118a2.835,2.835,0,0,0-5.194-.68l-.472.822a.944.944,0,0,0-1.284.34l-2.4,4.088-.822-.472a.943.943,0,1,0-.944,1.634l.822.472-8.026,13.909-1.983,5.3-.944,1.765a2.833,2.833,0,0,0,.151,3.06l-2.125,2.606-.595-1.492a1.889,1.889,0,0,0-3.371-.265l-.34.576L198.12,126a1.889,1.889,0,0,0-3.673-.444l-2.323,6.969a.944.944,0,0,0,.595,1.19.818.818,0,0,0,.293.075.944.944,0,0,0,.9-.642l2.313-6.969.331,3.833a1.889,1.889,0,0,0,3.5.812l.35-.576.586,1.483a1.888,1.888,0,0,0,3.229.481l2.2-2.785a2.909,2.909,0,0,0,.746.095,2.833,2.833,0,0,0,2.464-1.4l.944-1.577,3.6-4.372,8.111-14.079.822.472a.947.947,0,0,1,.35,1.294l-3.777,6.544a.938.938,0,1,0,1.6.982l3.777-6.544a2.832,2.832,0,0,0-1.039-3.872l-.822-.472,2.361-4.089a.945.945,0,0,0-.34-1.284l.472-.822a2.832,2.832,0,0,0,.283-2.191Zm-3.56.264a.944.944,0,0,1,.576-.444.991.991,0,0,1,.717.095.945.945,0,0,1,.444.576.991.991,0,0,1-.095.717l-.472.822-1.643-.944Zm-12.87,26.365-.472-.274-1.4-.812,1.341-3.588,2.974,1.718Zm-2.833,2.729a.944.944,0,0,1-.283-1.237l.472-.821,1.643.944-.472.812a.944.944,0,0,1-1.36.3Zm6.355-7.233-3.267-1.889,7.554-13.088,3.267,1.889Zm8.5-14.722-3.267-1.889,1.889-3.267,3.267,1.889Zm0,0" transform="translate(-169.405 -84.68)"/>
    <path id="Path_2164" data-name="Path 2164" class="cls-1" d="M74.268,356.824l-3.342,3.334-2-2a.945.945,0,1,0-1.332,1.341l2,2a1.9,1.9,0,0,0,2.672,0l3.333-3.343a.944.944,0,0,0-1.332-1.332Zm0,0" transform="translate(-59.367 -314.502)"/>
    <path id="Path_2165" data-name="Path 2165" class="cls-1" d="M32,320.067a8.026,8.026,0,0,0,16.053,0,.944.944,0,0,0-1.889,0,6.138,6.138,0,1,1-2.455-4.91.944.944,0,0,0,1.133-1.511A8.026,8.026,0,0,0,32,320.067Zm0,0" transform="translate(-28.223 -275.204)"/>
    <path id="Path_2166" data-name="Path 2166" class="cls-1" d="M97.5,49.928a.944.944,0,1,0,0-1.889H72.944a.944.944,0,0,0-.944.944v3.777a.944.944,0,0,0,.944.944H97.5a.944.944,0,1,0,0-1.889H73.889V49.928Zm0,0" transform="translate(-63.501 -42.373)"/>
    <path id="Path_2167" data-name="Path 2167" class="cls-1" d="M96.944,112.039a.944.944,0,0,0,0,1.889H115.83a.944.944,0,1,0,0-1.889Zm0,0" transform="translate(-84.669 -98.817)"/>
    <path id="Path_2168" data-name="Path 2168" class="cls-1" d="M149.719,168.039H128.944a.944.944,0,1,0,0,1.889h20.774a.944.944,0,1,0,0-1.889Zm0,0" transform="translate(-112.891 -148.206)"/>
    <path id="Path_2169" data-name="Path 2169" class="cls-1" d="M76.774,216.983a.944.944,0,0,0-.944-.944H56.944a.944.944,0,1,0,0,1.889H75.83A.944.944,0,0,0,76.774,216.983Zm0,0" transform="translate(-49.39 -190.539)"/>
    <path id="Path_2170" data-name="Path 2170" class="cls-1" d="M255.554,216.039h-6.61a.944.944,0,1,0,0,1.889h6.61a.944.944,0,1,0,0-1.889Zm0,0" transform="translate(-218.727 -190.539)"/>
    <path id="Path_2171" data-name="Path 2171" class="cls-1" d="M66.387,257.928a.944.944,0,1,0,0-1.889H56.944a.944.944,0,1,0,0,1.889Zm0,0" transform="translate(-49.39 -225.817)"/>
    <path id="Path_2172" data-name="Path 2172" class="cls-1" d="M168.944,257.928h6.61a.944.944,0,1,0,0-1.889h-6.61a.944.944,0,0,0,0,1.889Zm0,0" transform="translate(-148.17 -225.817)"/>
    <path id="Path_2173" data-name="Path 2173" class="cls-1" d="M42.493,43.483a.944.944,0,0,0-.944.944v9.444a.944.944,0,0,1-.944.944H2.833a.944.944,0,0,1-.944-.944v-51a.944.944,0,0,1,.944-.944H40.6a.944.944,0,0,1,.944.944V20.609a.944.944,0,1,0,1.889,0V2.872A2.833,2.833,0,0,0,40.6.039H2.833A2.833,2.833,0,0,0,0,2.872v51a2.833,2.833,0,0,0,2.833,2.833H40.6a2.833,2.833,0,0,0,2.833-2.833V44.428A.944.944,0,0,0,42.493,43.483Zm0,0" transform="translate(0 -0.039)"/>
  </g>
</svg>
