<svg xmlns="http://www.w3.org/2000/svg" width="94" height="94" viewBox="0 0 94 94">
  <path id="Exclusion_1" data-name="Exclusion 1" d="M47,94A47.012,47.012,0,0,1,28.705,3.694,47.012,47.012,0,0,1,65.294,90.306,46.706,46.706,0,0,1,47,94ZM56.29,38.449h0V60.661c0,.585,0,.706-.383,1.091l-3.961,3.832V66.4H71.164v-.819l-3.818-3.739a1.139,1.139,0,0,1-.437-1.09v-27.5a1.135,1.135,0,0,1,.436-1.09l3.91-3.74V27.61H57.709L48.055,51.638,37.073,27.61H22.87v.819l4.567,5.5a1.922,1.922,0,0,1,.619,1.6V57.134a2.464,2.464,0,0,1-.66,2.144l-5.145,6.236v.808H36.84V65.5L31.7,59.278a2.53,2.53,0,0,1-.709-2.144V38.444L43.792,66.333h1.489Z" fill="#ff0"/>
</svg>
