<svg xmlns="http://www.w3.org/2000/svg" width="92.171" height="96.96" viewBox="0 0 92.171 96.96">
  <g id="layer1" transform="translate(0 0)">
    <path id="path4509" d="M35.385,89.14C15.4,38.882-.026.026,0,0,.045-.045,72.726,13.31,73.065,13.426c.285.1,19.107,17.946,19.107,18.119,0,.1-52.879,64.593-53.4,65.128l-.278.286Zm27.2-29.752c10.277-12.53,18.9-23.037,19.152-23.347l.468-.564-.456.1c-.251.054-7.811,1.424-16.8,3.046S48.6,41.572,48.592,41.578c-.026.013-4.9,40.46-4.9,40.662,0,.1.041.117.107.046s8.515-10.368,18.792-22.9ZM40.944,61.15c1.384-11.495,2.527-21.129,2.54-21.41l.024-.511L26.922,25.451c-9.122-7.578-16.6-13.77-16.611-13.761s6.274,15.88,13.973,35.268S38.316,82.173,38.356,82.129s1.2-9.485,2.588-20.979Zm27.23-28.441C76.193,31.26,82.795,30.038,82.843,30s-2.368-2.413-5.369-5.266l-5.458-5.187-9.272,7.722c-5.1,4.247-9.382,7.833-9.515,7.97l-.243.248.3-.068C53.456,35.375,60.155,34.159,68.174,32.709ZM56.118,25.916c5.52-4.61,10.019-8.4,10-8.422-.045-.045-52-9.615-52.03-9.584S45.942,34.356,46.008,34.328c.04-.017,4.59-3.8,10.11-8.412Z" transform="translate(0 0)" fill="#fff"/>
  </g>
</svg>
