<svg xmlns="http://www.w3.org/2000/svg" width="68.02" height="70.005" viewBox="0 0 68.02 70.005">
  <g id="metamask" transform="translate(1.861 0.959)">
    <path id="Path_8498" data-name="Path 8498" d="M322.387,290.9l-3.978,13.45-7.809-2.136Z" transform="translate(-260.273 -243.638)" fill="#e4761b" stroke="#e4761b" stroke-width="1"/>
    <path id="Path_8499" data-name="Path 8499" d="M310.6,302.214l7.532-10.32,4.255-.995Z" transform="translate(-260.273 -243.638)" fill="#e4761b" stroke="#e4761b" stroke-width="1"/>
    <path id="Path_8500" data-name="Path 8500" d="M347,215.308l5.853,10.14-4.255.994Zm0,0,3.766-2.608,2.087,12.749Z" transform="translate(-290.739 -178.187)" fill="#f6851b" stroke="#f6851b" stroke-width="1"/>
    <path id="Path_8501" data-name="Path 8501" d="M317.6,158.934l10.825-4.434-.538,2.429Zm9.945.913-9.945-.913,10.287-2.005Z" transform="translate(-266.132 -129.475)" fill="#763d16" stroke="#763d16" stroke-width="1"/>
    <path id="Path_8502" data-name="Path 8502" d="M327.545,159.847l-1.386,4.141-8.559-5.054Zm2.168-4.32-1.826,1.4.538-2.429Zm-2.168,4.32.342-2.918,1.451,1.206Z" transform="translate(-266.132 -129.475)" fill="#763d16" stroke="#763d16" stroke-width="1"/>
    <path id="Path_8503" data-name="Path 8503" d="M259.1,340.2l2.706.864,5.69,2.413Z" transform="translate(-217.169 -284.901)" fill="#e2761b" stroke="#e2761b" stroke-width="1"/>
    <path id="Path_8504" data-name="Path 8504" d="M312.433,186.754l1.386-4.141,1.19.913Zm0,0-11.233-3.7,2.674-1.353Z" transform="translate(-252.406 -152.241)" fill="#763d16" stroke="#763d16" stroke-width="1"/>
    <path id="Path_8505" data-name="Path 8505" d="M306.547,103.8l-2.674,12.7-2.674,1.353Z" transform="translate(-252.406 -87.041)" fill="#763d16" stroke="#763d16" stroke-width="1"/>
    <path id="Path_8506" data-name="Path 8506" d="M328.425,112.065,317.6,116.5l2.674-12.7Z" transform="translate(-266.132 -87.041)" fill="#763d16" stroke="#763d16" stroke-width="1"/>
    <path id="Path_8507" data-name="Path 8507" d="M334,97.1l11.3-1.3-3.146,9.57Z" transform="translate(-279.858 -80.345)" fill="#763d16" stroke="#763d16" stroke-width="1"/>
    <path id="Path_8508" data-name="Path 8508" d="M312.433,193.7l-3.766,2.608L301.2,190Z" transform="translate(-252.406 -159.188)" fill="#f6851b" stroke="#f6851b" stroke-width="1"/>
    <path id="Path_8509" data-name="Path 8509" d="M344.809,39.7l.489,9.146L334,50.15Z" transform="translate(-279.858 -33.391)" fill="#763d16" stroke="#763d16" stroke-width="1"/>
    <path id="Path_8510" data-name="Path 8510" d="M282.873,39.7,260.293,56.117,260,44.982Z" transform="translate(-217.922 -33.391)" fill="#e2761b" stroke="#e2761b" stroke-width="1"/>
    <path id="Path_8511" data-name="Path 8511" d="M157,63.9l16.792,1.337.293,11.135Z" transform="translate(-131.714 -53.646)" fill="#f6851b" stroke="#f6851b" stroke-width="1"/>
    <path id="Path_8512" data-name="Path 8512" d="M268.223,117.853l-6.423-8.086,11.771-5.967Z" transform="translate(-219.429 -87.041)" fill="#763d16" stroke="#763d16" stroke-width="1"/>
    <path id="Path_8513" data-name="Path 8513" d="M285.716,190l7.467,6.309L282.7,197.467Z" transform="translate(-236.922 -159.188)" fill="#e4761b" stroke="#e4761b" stroke-width="1"/>
    <path id="Path_8514" data-name="Path 8514" d="M265.207,155.953,261.8,140.4l6.423,8.086Z" transform="translate(-219.429 -117.674)" fill="#e4761b" stroke="#e4761b" stroke-width="1"/>
    <path id="Path_8515" data-name="Path 8515" d="M273.571,50.15,261.8,56.117,284.379,39.7Z" transform="translate(-219.429 -33.391)" fill="#763d16" stroke="#763d16" stroke-width="1"/>
    <path id="Path_8516" data-name="Path 8516" d="M148.024,353.343l5.331,5.559-7.255-6.6Z" transform="translate(-122.591 -295.028)" fill="#c0ad9e" stroke="#c0ad9e" stroke-width="1"/>
    <path id="Path_8517" data-name="Path 8517" d="M310.6,307.32l2.527-9.6,5.005-.717Z" transform="translate(-260.273 -248.744)" fill="#cd6116" stroke="#cd6116" stroke-width="1"/>
    <path id="Path_8518" data-name="Path 8518" d="M25.3,144.8l9.227-9.7-8.037,8.543Z" transform="translate(-21.485 -113.238)" fill="#e2761b" stroke="#e2761b" stroke-width="1"/>
    <path id="Path_8519" data-name="Path 8519" d="M189.573,101.9l-5,.717,3.407-11.852Zm-15.488-25.53-8.983-.293L157,63.9Z" transform="translate(-131.714 -53.646)" fill="#f6851b" stroke="#f6851b" stroke-width="1"/>
    <path id="Path_8520" data-name="Path 8520" d="M328.085,228.7l-3.407,11.852-.277-5.788Z" transform="translate(-271.823 -191.578)" fill="#e4751f" stroke="#e4751f" stroke-width="1"/>
    <path id="Path_8521" data-name="Path 8521" d="M282.7,229.857l10.483-1.158-3.684,6.065Z" transform="translate(-236.922 -191.578)" fill="#cd6116" stroke="#cd6116" stroke-width="1"/>
    <path id="Path_8522" data-name="Path 8522" d="M206.7,138.6l8.983.293,3.407,15.553Z" transform="translate(-173.312 -116.167)" fill="#f6851b" stroke="#f6851b" stroke-width="1"/>
    <path id="Path_8523" data-name="Path 8523" d="M35.288,23.433,11.046,1l16.14,10.254Zm-8.119,39.29L6.106,69.244,1.9,53.185Z" transform="translate(-1.9 -1)" fill="#e4761b" stroke="#e4761b" stroke-width="1"/>
    <path id="Path_8524" data-name="Path 8524" d="M44.5,187.144l7.956-6.244,6.668,1.549Z" transform="translate(-37.555 -151.571)" fill="#763d16" stroke="#763d16" stroke-width="1"/>
    <path id="Path_8525" data-name="Path 8525" d="M99.968,106.787,93.3,105.238,96.87,90.5Z" transform="translate(-78.399 -75.909)" fill="#763d16" stroke="#763d16" stroke-width="1"/>
    <path id="Path_8526" data-name="Path 8526" d="M32.6,181.976l9.9-1.076-7.956,6.244Z" transform="translate(-27.595 -151.571)" fill="#763d16" stroke="#763d16" stroke-width="1"/>
    <path id="Path_8527" data-name="Path 8527" d="M289.5,240.707l-4.108-2.07L282.7,235.8Z" transform="translate(-236.922 -197.521)" fill="#cd6116" stroke="#cd6116" stroke-width="1"/>
    <path id="Path_8528" data-name="Path 8528" d="M29,168.5l-.7-3.7,10.6,2.625Z" transform="translate(-23.996 -138.096)" fill="#763d16" stroke="#763d16" stroke-width="1"/>
    <path id="Path_8529" data-name="Path 8529" d="M294,257.863l.848-4.663,4.108,2.071Z" transform="translate(-246.379 -212.084)" fill="#233447" stroke="#233447" stroke-width="1"/>
    <path id="Path_8530" data-name="Path 8530" d="M299.233,271.687l-5.233-3.2,4.956-2.592Z" transform="translate(-246.379 -222.714)" fill="#f6851b" stroke="#f6851b" stroke-width="1"/>
    <path id="Path_8531" data-name="Path 8531" d="M34.461,105.238l-10.6-2.625L23,99.5ZM38.031,90.5l-3.57,14.738L23,99.5Zm0,0,14.917,7.842-11.82,8.445Z" transform="translate(-19.56 -75.909)" fill="#763d16" stroke="#763d16" stroke-width="1"/>
    <path id="Path_8532" data-name="Path 8532" d="M134.2,147.045l11.82-8.445,5.266,16.091Zm17.085,7.646-16.335-.342-.75-7.3Z" transform="translate(-112.631 -116.167)" fill="#e4761b" stroke="#e4761b" stroke-width="1"/>
    <path id="Path_8533" data-name="Path 8533" d="M44.5,151.74l14.624-4.7.75,7.3Zm38.833,2.706-7.124.245L70.943,138.6Z" transform="translate(-37.555 -116.167)" fill="#f6851b" stroke="#f6851b" stroke-width="1"/>
    <path id="Path_8534" data-name="Path 8534" d="M285.39,238.637l-.848,4.663-1.842-7.5Z" transform="translate(-236.922 -197.521)" fill="#cd6116" stroke="#cd6116" stroke-width="1"/>
    <path id="Path_8535" data-name="Path 8535" d="M58,1,82.242,23.433,67.325,15.591Z" transform="translate(-48.854 -1)" fill="#763d16" stroke="#763d16" stroke-width="1"/>
    <path id="Path_8536" data-name="Path 8536" d="M1.9,316.748l20.444-.848,4.826,10.385Z" transform="translate(-1.9 -264.562)" fill="#e4761b" stroke="#e4761b" stroke-width="1"/>
    <path id="Path_8537" data-name="Path 8537" d="M132.126,323.774,127.3,313.389l10.043-.489Z" transform="translate(-106.856 -262.052)" fill="#cd6116" stroke="#cd6116" stroke-width="1"/>
    <path id="Path_8538" data-name="Path 8538" d="M49.521,229.406l5.233,3.2,2.886,6.8Zm-25.3-7.6-22.319,14L8.845,219.2Zm-1.875,13.156L1.9,235.813l22.319-14Zm25.335-13.059,1.337,4.858-6.456.375Zm-5.119,5.233-2.005-4.989,7.124-.245Z" transform="translate(-1.9 -183.627)" fill="#f6851b" stroke="#f6851b" stroke-width="1"/>
    <path id="Path_8539" data-name="Path 8539" d="M162.394,381.752,156.9,379.6l19.107,3.212Z" transform="translate(-131.631 -317.877)" fill="#c0ad9e" stroke="#c0ad9e" stroke-width="1"/>
    <path id="Path_8540" data-name="Path 8540" d="M28.43,192.668l-3.13-4.01,1.19-1.158Z" transform="translate(-21.485 -157.095)" fill="#763d16" stroke="#763d16" stroke-width="1"/>
    <path id="Path_8541" data-name="Path 8541" d="M178.175,380.431l-2.168,2.38L156.9,379.6Z" transform="translate(-131.631 -317.878)" fill="#d7c1b3" stroke="#d7c1b3" stroke-width="1"/>
    <path id="Path_8542" data-name="Path 8542" d="M179.2,318.769l-22.3,5,5.217-10.874Z" transform="translate(-131.631 -262.052)" fill="#e4761b" stroke="#e4761b" stroke-width="1"/>
    <path id="Path_8543" data-name="Path 8543" d="M156.9,353.9l22.3-5.005-1.027,5.836Z" transform="translate(-131.631 -292.182)" fill="#d7c1b3" stroke="#d7c1b3" stroke-width="1"/>
    <path id="Path_8544" data-name="Path 8544" d="M19.234,81.337,18.5,68.8l15.765,3.538ZM20.8,88.151l-2.168-2.2,1.467-1.5Z" transform="translate(-15.794 -57.747)" fill="#763d16" stroke="#763d16" stroke-width="1"/>
    <path id="Path_8545" data-name="Path 8545" d="M216.6,240.528l3.652-3.228-.522,7.891Z" transform="translate(-181.598 -198.776)" fill="#cd6116" stroke="#cd6116" stroke-width="1"/>
    <path id="Path_8546" data-name="Path 8546" d="M192.967,237.3l-3.652,3.228L184,243.283Z" transform="translate(-154.313 -198.776)" fill="#cd6116" stroke="#cd6116" stroke-width="1"/>
    <path id="Path_8547" data-name="Path 8547" d="M302.119,291.794l-.994-.734L294,281.8Z" transform="translate(-246.379 -236.022)" fill="#f6851b" stroke="#f6851b" stroke-width="1"/>
    <path id="Path_8548" data-name="Path 8548" d="M146.169,241.525,138.8,235.2l16.335.342Z" transform="translate(-116.481 -197.019)" fill="#cd6116" stroke="#cd6116" stroke-width="1"/>
    <path id="Path_8549" data-name="Path 8549" d="M235.8,245.191l.522-7.891,2.005,4.989Z" transform="translate(-197.668 -198.776)" fill="#e4751f" stroke="#e4751f" stroke-width="1"/>
    <path id="Path_8550" data-name="Path 8550" d="M14.9,146.939l1.321-1.239.864,3.114Z" transform="translate(-12.781 -122.11)" fill="#763d16" stroke="#763d16" stroke-width="1"/>
    <path id="Path_8551" data-name="Path 8551" d="M192.445,261.763,184,259.855l5.315-2.755Z" transform="translate(-154.313 -215.348)" fill="#233447" stroke="#233447" stroke-width="1"/>
    <path id="Path_8552" data-name="Path 8552" d="M34.265,15.591,18.5,12.053,24.94,1Z" transform="translate(-15.794 -1)" fill="#763d16" stroke="#763d16" stroke-width="1"/>
    <path id="Path_8553" data-name="Path 8553" d="M204.213,393.86l.9,2.445L190.6,392.8Z" transform="translate(-159.837 -328.925)" fill="#c0ad9e" stroke="#c0ad9e" stroke-width="1"/>
    <path id="Path_8554" data-name="Path 8554" d="M184.8,280.342,184,274l8.445,1.907Z" transform="translate(-154.313 -229.493)" fill="#f6851b" stroke="#f6851b" stroke-width="1"/>
    <path id="Path_8555" data-name="Path 8555" d="M138.8,235.2l7.369,6.326.8,6.342Z" transform="translate(-116.481 -197.019)" fill="#e4751f" stroke="#e4751f" stroke-width="1"/>
    <path id="Path_8556" data-name="Path 8556" d="M147.515,240.531l6.456-.375,7.63,11.9ZM129.175,235.2l8.168,12.667-10.043.489Z" transform="translate(-106.856 -197.019)" fill="#f6851b" stroke="#f6851b" stroke-width="1"/>
    <path id="Path_8557" data-name="Path 8557" d="M238.327,267.9l8.021,12.211L235.8,270.8Z" transform="translate(-197.668 -224.388)" fill="#e4751f" stroke="#e4751f" stroke-width="1"/>
    <path id="Path_8558" data-name="Path 8558" d="M235.8,285.7l10.548,9.309-1.109.995Z" transform="translate(-197.668 -239.286)" fill="#f6851b" stroke="#f6851b" stroke-width="1"/>
    <path id="Path_8559" data-name="Path 8559" d="M205.985,281.105,188.9,275.236l7.646-4.434Zm7.173-1.679-6.065.685L199.073,267.9Z" transform="translate(-158.414 -224.388)" fill="#f6851b" stroke="#f6851b" stroke-width="1"/>
    <path id="Path_8560" data-name="Path 8560" d="M286.066,373.8l-2.608,5.233L275,380.4ZM275,380.4l-.9-2.445,2.168-2.38Z" transform="translate(-229.724 -313.023)" fill="#c0ad9e" stroke="#c0ad9e" stroke-width="1"/>
    <path id="Path_8561" data-name="Path 8561" d="M280.872,375.577l1.6-.636L279.6,380.4ZM279.6,380.4l2.869-5.461,8.2-1.141Z" transform="translate(-234.327 -313.023)" fill="#c0ad9e" stroke="#c0ad9e" stroke-width="1"/>
    <path id="Path_8562" data-name="Path 8562" d="M316.692,338.6l2.005,1.223-6.1.733Z" transform="translate(-261.947 -283.562)" fill="#161616" stroke="#161616" stroke-width="1"/>
    <path id="Path_8563" data-name="Path 8563" d="M302.473,340.556l-1.973-1.272,6.065-.685Zm-.7.962,7.418-.9-1.027,3.717Z" transform="translate(-251.82 -283.562)" fill="#161616" stroke="#161616" stroke-width="1"/>
    <path id="Path_8564" data-name="Path 8564" d="M297.2,347.854l-8.2,1.141,1.81-3.962Zm-8.2,1.141-1.6.636,1.027-5.836Zm-.57-5.2,1.109-.995,1.973,1.272Zm9.178-.457.62.8-7.418.9Z" transform="translate(-240.855 -287.077)" fill="#161616" stroke="#161616" stroke-width="1"/>
    <path id="Path_8565" data-name="Path 8565" d="M296.08,347.8l.7-.962,6.1-.734Zm-2.38-1.239,2.38,1.239-1.81,3.962Z" transform="translate(-246.128 -289.839)" fill="#161616" stroke="#161616" stroke-width="1"/>
    <path id="Path_8566" data-name="Path 8566" d="M296.781,349.177l-.7.962L293.7,348.9Z" transform="translate(-246.128 -292.182)" fill="#161616" stroke="#161616" stroke-width="1"/>
  </g>
</svg>
