<svg id="question" xmlns="http://www.w3.org/2000/svg" width="64.286" height="64.286" viewBox="0 0 64.286 64.286">
  <path id="Path_13037" data-name="Path 13037" d="M32.143,0A32.143,32.143,0,1,0,64.286,32.143,32.179,32.179,0,0,0,32.143,0Z" fill="#d9a816"/>
  <path id="Path_13038" data-name="Path 13038" d="M240.025,365.346a2.678,2.678,0,1,1-2.678-2.678A2.678,2.678,0,0,1,240.025,365.346Z" transform="translate(-205.203 -317.132)" fill="#eceff1"/>
  <path id="Path_13039" data-name="Path 13039" d="M176.294,108.48a2.691,2.691,0,0,0-1.562,2.435v1.2a2.678,2.678,0,0,1-5.357,0v-1.2a8.07,8.07,0,0,1,4.674-7.3c2.729-1.256,4.7-4.591,4.7-6.228a6.7,6.7,0,1,0-13.393,0,2.679,2.679,0,1,1-5.357,0,12.054,12.054,0,0,1,24.107,0C184.107,101,180.968,106.324,176.294,108.48Z" transform="translate(-139.911 -74.618)" fill="#fafafa"/>
</svg>
