<svg xmlns="http://www.w3.org/2000/svg" xmlns:xlink="http://www.w3.org/1999/xlink" width="93.458" height="96.187" viewBox="0 0 93.458 96.187">
  <defs>
    <linearGradient id="linear-gradient" y1="0.653" x2="1.507" y2="1.281" gradientUnits="objectBoundingBox">
      <stop offset="0" stop-color="#8e3ddf"/>
      <stop offset="1" stop-color="#fff"/>
    </linearGradient>
    <linearGradient id="linear-gradient-2" x1="0.227" y1="0.881" x2="1.502" y2="0.191" xlink:href="#linear-gradient"/>
    <linearGradient id="linear-gradient-3" x1="0.06" y1="0.748" x2="1.382" y2="0.767" xlink:href="#linear-gradient"/>
    <linearGradient id="linear-gradient-4" x1="1" y1="0.653" x2="-0.507" y2="1.281" xlink:href="#linear-gradient"/>
    <linearGradient id="linear-gradient-5" x1="0.773" y1="0.881" x2="-0.502" y2="0.191" xlink:href="#linear-gradient"/>
    <linearGradient id="linear-gradient-6" x1="0.94" y1="0.748" x2="-0.382" y2="0.767" xlink:href="#linear-gradient"/>
    <linearGradient id="linear-gradient-7" x1="0.5" y1="0.032" x2="0.5" y2="0.937" gradientUnits="objectBoundingBox">
      <stop offset="0" stop-color="#ff83ff"/>
      <stop offset="0.007" stop-color="#fd82fe"/>
      <stop offset="0.22" stop-color="#d569f3"/>
      <stop offset="0.43" stop-color="#b656ea"/>
      <stop offset="0.634" stop-color="#a048e4"/>
      <stop offset="0.827" stop-color="#923fe0"/>
      <stop offset="1" stop-color="#8e3ddf"/>
    </linearGradient>
  </defs>
  <g id="Group_2015" data-name="Group 2015" transform="translate(-79.542 -94.68)">
    <path id="Path_38" data-name="Path 38" d="M439.786,312.313l.006.007c-4.073-6.9-6.351-19.322-2.1-41.616a34.425,34.425,0,0,0,1.579,9.38,41.732,41.732,0,0,1-1.639-11.421v0c-.01,6.063-3.828,12.441-6.362,19.2-5.479,14.616-5.918,27.3-.554,35.589,2.815,4.348,8.46,6.194,14.36,3.6a37.426,37.426,0,0,0,9.4-6.17C447.376,320.8,442.638,317.777,439.786,312.313Z" transform="translate(-297.371 -137.377)" fill="url(#linear-gradient)"/>
    <path id="Path_39" data-name="Path 39" d="M480.48,295.606a45.349,45.349,0,0,0-.572-17.49c-.006,0,0,1.828,0,2.693,0,10.693-11.32,17.764-22.281,11.263-6.593-3.91-8.988-13.374-9.27-21.082.169,7.529-.619,16.205,3.09,25.575C458.183,313.578,478.984,305.315,480.48,295.606Z" transform="translate(-308.075 -138.539)" fill="url(#linear-gradient-2)"/>
    <path id="Path_40" data-name="Path 40" d="M461.66,319.869a10.534,10.534,0,0,0,7.292-2.919,42.256,42.256,0,0,0,6.127-9.726c-7.333,4.068-20.931,2.893-25.862-9.691-3.461-8.831-2.989-17.3-3.074-24.6-4.222,22.236-1.944,34.631,2.125,41.524C451.086,317.9,455.051,320.139,461.66,319.869Z" transform="translate(-305.843 -139.507)" fill="url(#linear-gradient-3)"/>
    <g id="Group_2014" data-name="Group 2014" transform="translate(0 -1)">
      <path id="Path_113" data-name="Path 113" d="M441.6,312.313l-.006.007c4.073-6.9,6.351-19.322,2.1-41.616a34.425,34.425,0,0,1-1.579,9.38,41.732,41.732,0,0,0,1.639-11.421v0c.01,6.063,3.828,12.441,6.362,19.2,5.479,14.616,5.918,27.3.554,35.589-2.815,4.348-8.46,6.194-14.36,3.6a37.426,37.426,0,0,1-9.4-6.17C434.012,320.8,438.75,317.777,441.6,312.313Z" transform="translate(-331.475 -136.377)" fill="url(#linear-gradient-4)"/>
      <path id="Path_114" data-name="Path 114" d="M448.955,295.606a45.349,45.349,0,0,1,.572-17.49c.006,0,0,1.828,0,2.693,0,10.693,11.32,17.764,22.281,11.263,6.593-3.91,8.988-13.374,9.27-21.082-.169,7.529.619,16.205-3.09,25.575C471.251,313.578,450.451,305.315,448.955,295.606Z" transform="translate(-368.817 -137.539)" fill="url(#linear-gradient-5)"/>
      <path id="Path_115" data-name="Path 115" d="M457.3,319.869a10.534,10.534,0,0,1-7.292-2.919,42.256,42.256,0,0,1-6.127-9.726c7.333,4.068,20.931,2.893,25.862-9.691,3.461-8.831,2.989-17.3,3.074-24.6,4.222,22.236,1.944,34.631-2.125,41.524C467.878,317.9,463.914,320.139,457.3,319.869Z" transform="translate(-360.579 -138.507)" fill="url(#linear-gradient-6)"/>
    </g>
    <path id="Path_41" data-name="Path 41" d="M417.072,223.887c-.317-.609-1.908-4.617-7.728-11.263,0,0-14.948-16.4-31.714-16.4s-31.714,16.4-31.714,16.4c-5.82,6.646-7.411,10.654-7.728,11.263-12.214,23.649,3.942,33.9,8.292,34.1,3.675.156,5.77-.972,8.136-2.376a16.9,16.9,0,0,0,4.038-3.826c2.935-4.073,5.01-10.347,4.949-19.424a13.877,13.877,0,0,1,13.876-13.876h.005a2.119,2.119,0,0,0,.292,0h.005a13.877,13.877,0,0,1,13.876,13.876c-.06,9.078,2.014,15.351,4.949,19.424a16.9,16.9,0,0,0,4.038,3.826c2.366,1.4,4.461,2.533,8.136,2.376C413.129,257.791,429.286,247.536,417.072,223.887Z" transform="translate(-251.303 -101.539)" fill="url(#linear-gradient-7)"/>
    <path id="Path_42" data-name="Path 42" d="M432.378,278.473c-.5,1.673-1.84,2.752-3,2.408s-1.694-1.981-1.2-3.655,1.84-2.752,3-2.408S432.875,276.8,432.378,278.473Z" transform="translate(-297.912 -140.417)" fill="#964fe8"/>
    <path id="Path_43" data-name="Path 43" d="M409.716,277.184c.541,1.66.049,3.31-1.1,3.684s-2.519-.668-3.06-2.328-.048-3.311,1.1-3.685S409.175,275.523,409.716,277.184Z" transform="translate(-286.602 -140.43)" fill="#964fe8"/>
    <g id="Group_2006" data-name="Group 2006" transform="translate(89.267 99.979)">
      <path id="Path_44" data-name="Path 44" d="M355.474,249.761a2.467,2.467,0,1,1,2.877-1.153A2.217,2.217,0,0,1,355.474,249.761Z" transform="translate(-350.537 -225.719)" fill="#8e3ddf"/>
      <path id="Path_45" data-name="Path 45" d="M356.2,264.943a1.917,1.917,0,1,1,2.236-.9A1.725,1.725,0,0,1,356.2,264.943Z" transform="translate(-350.996 -233.788)" fill="#8e3ddf"/>
      <path id="Path_46" data-name="Path 46" d="M347.465,271.708a1.567,1.567,0,1,1,1.506-1.271A1.41,1.41,0,0,1,347.465,271.708Z" transform="translate(-346.505 -237.366)" fill="#8e3ddf"/>
      <path id="Path_47" data-name="Path 47" d="M363.775,237.455a1.567,1.567,0,1,1,1.811-.773A1.408,1.408,0,0,1,363.775,237.455Z" transform="translate(-354.83 -220.37)" fill="#8e3ddf"/>
      <path id="Path_48" data-name="Path 48" d="M366.809,248.677a1.091,1.091,0,1,1,1.261-.538A.979.979,0,0,1,366.809,248.677Z" transform="translate(-356.434 -226.4)" fill="#8e3ddf"/>
      <path id="Path_49" data-name="Path 49" d="M388.01,208.128a1.091,1.091,0,1,1,1.261-.537A.98.98,0,0,1,388.01,208.128Z" transform="translate(-367.016 -206.161)" fill="#8e3ddf"/>
      <path id="Path_50" data-name="Path 50" d="M373.912,235.443a1.092,1.092,0,1,1,1.261-.537A.981.981,0,0,1,373.912,235.443Z" transform="translate(-359.979 -219.794)" fill="#8e3ddf"/>
      <path id="Path_51" data-name="Path 51" d="M347.449,286.4a.975.975,0,1,1,.591-1.074A.878.878,0,0,1,347.449,286.4Z" transform="translate(-346.504 -245.268)" fill="#8e3ddf"/>
      <path id="Path_52" data-name="Path 52" d="M371.409,224.923a.975.975,0,1,1,1.191-.29A.878.878,0,0,1,371.409,224.923Z" transform="translate(-358.803 -214.703)" fill="#8e3ddf"/>
      <path id="Path_53" data-name="Path 53" d="M383.3,219.69a.975.975,0,1,1,1.191-.291A.877.877,0,0,1,383.3,219.69Z" transform="translate(-364.739 -212.091)" fill="#8e3ddf"/>
      <path id="Path_54" data-name="Path 54" d="M379.512,213.525a.542.542,0,1,1,.661-.162A.488.488,0,0,1,379.512,213.525Z" transform="translate(-362.906 -209.379)" fill="#8e3ddf"/>
    </g>
    <g id="Group_2007" data-name="Group 2007" transform="translate(139.598 99.979)">
      <path id="Path_55" data-name="Path 55" d="M478.63,249.761a2.467,2.467,0,1,0-2.877-1.153A2.218,2.218,0,0,0,478.63,249.761Z" transform="translate(-461.162 -225.719)" fill="#8e3ddf"/>
      <path id="Path_56" data-name="Path 56" d="M478.825,264.943a1.917,1.917,0,1,0-2.235-.9A1.724,1.724,0,0,0,478.825,264.943Z" transform="translate(-461.62 -233.788)" fill="#8e3ddf"/>
      <path id="Path_57" data-name="Path 57" d="M488.27,271.708a1.567,1.567,0,1,0-1.506-1.271A1.41,1.41,0,0,0,488.27,271.708Z" transform="translate(-466.825 -237.366)" fill="#8e3ddf"/>
      <path id="Path_58" data-name="Path 58" d="M471.842,237.455a1.568,1.568,0,1,0-1.812-.773A1.408,1.408,0,0,0,471.842,237.455Z" transform="translate(-458.382 -220.37)" fill="#8e3ddf"/>
      <path id="Path_59" data-name="Path 59" d="M469.6,248.677a1.091,1.091,0,1,0-1.26-.538A.981.981,0,0,0,469.6,248.677Z" transform="translate(-457.571 -226.4)" fill="#8e3ddf"/>
      <path id="Path_60" data-name="Path 60" d="M448.4,208.128a1.091,1.091,0,1,0-1.261-.537A.98.98,0,0,0,448.4,208.128Z" transform="translate(-446.989 -206.161)" fill="#8e3ddf"/>
      <path id="Path_61" data-name="Path 61" d="M462.5,235.443a1.091,1.091,0,1,0-1.262-.537A.981.981,0,0,0,462.5,235.443Z" transform="translate(-454.026 -219.794)" fill="#8e3ddf"/>
      <path id="Path_62" data-name="Path 62" d="M489.228,286.4a.976.976,0,1,0-.59-1.074A.878.878,0,0,0,489.228,286.4Z" transform="translate(-467.768 -245.268)" fill="#8e3ddf"/>
      <path id="Path_63" data-name="Path 63" d="M465.137,224.923a.975.975,0,1,0-1.191-.29A.879.879,0,0,0,465.137,224.923Z" transform="translate(-455.338 -214.703)" fill="#8e3ddf"/>
      <path id="Path_64" data-name="Path 64" d="M453.243,219.69a.975.975,0,1,0-1.191-.291A.877.877,0,0,0,453.243,219.69Z" transform="translate(-449.401 -212.091)" fill="#8e3ddf"/>
      <path id="Path_65" data-name="Path 65" d="M457.78,213.525a.542.542,0,1,0-.661-.162A.488.488,0,0,0,457.78,213.525Z" transform="translate(-451.981 -209.379)" fill="#8e3ddf"/>
    </g>
    <g id="Group_2008" data-name="Group 2008" transform="translate(88.039 157.882)">
      <path id="Path_66" data-name="Path 66" d="M381.542,341.8a1.2,1.2,0,1,1-1.5-.127A1.077,1.077,0,0,1,381.542,341.8Z" transform="translate(-361.729 -331.581)" fill="#8e3ddf"/>
      <path id="Path_67" data-name="Path 67" d="M360.177,352.353a1.2,1.2,0,1,1-1.379-.6A1.074,1.074,0,0,1,360.177,352.353Z" transform="translate(-350.96 -336.706)" fill="#8e3ddf"/>
      <path id="Path_68" data-name="Path 68" d="M352.464,357.895a.885.885,0,1,1-.759-.813A.8.8,0,0,1,352.464,357.895Z" transform="translate(-347.393 -339.386)" fill="#8e3ddf"/>
      <path id="Path_69" data-name="Path 69" d="M381.4,349.654a.63.63,0,1,1-.775-.163A.568.568,0,0,1,381.4,349.654Z" transform="translate(-362.122 -335.563)" fill="#8e3ddf"/>
      <path id="Path_70" data-name="Path 70" d="M391.211,321.772a.848.848,0,1,1-.8.7A.763.763,0,0,1,391.211,321.772Z" transform="translate(-367.181 -321.764)" fill="#8e3ddf"/>
      <path id="Path_71" data-name="Path 71" d="M365.206,360.226a.63.63,0,1,1-.774-.164A.567.567,0,0,1,365.206,360.226Z" transform="translate(-354.041 -340.839)" fill="#8e3ddf"/>
      <path id="Path_72" data-name="Path 72" d="M387.67,332.026a.885.885,0,1,1-1.1.156A.795.795,0,0,1,387.67,332.026Z" transform="translate(-365.139 -326.806)" fill="#8e3ddf"/>
      <path id="Path_73" data-name="Path 73" d="M346.337,352.335a1.2,1.2,0,1,1-.879-1.221A1.076,1.076,0,0,1,346.337,352.335Z" transform="translate(-344.052 -336.387)" fill="#8e3ddf"/>
      <path id="Path_74" data-name="Path 74" d="M372.536,350.8a1.406,1.406,0,1,1-1.719-.407A1.264,1.264,0,0,1,372.536,350.8Z" transform="translate(-356.987 -335.973)" fill="#8e3ddf"/>
    </g>
    <g id="Group_2009" data-name="Group 2009" transform="translate(103.013 166.954)">
      <path id="Path_75" data-name="Path 75" d="M385.416,369.358a1.406,1.406,0,1,1-1.736-.328A1.265,1.265,0,0,1,385.416,369.358Z" transform="translate(-378.409 -354.329)" fill="#8e3ddf"/>
      <path id="Path_76" data-name="Path 76" d="M376.034,378.266a1.085,1.085,0,1,1-.842-1.074A.975.975,0,0,1,376.034,378.266Z" transform="translate(-373.948 -358.484)" fill="#8e3ddf"/>
      <path id="Path_77" data-name="Path 77" d="M391.483,359.794a1.05,1.05,0,1,1-1.21.525A.944.944,0,0,1,391.483,359.794Z" transform="translate(-382.026 -349.778)" fill="#8e3ddf"/>
      <path id="Path_78" data-name="Path 78" d="M387.005,378.59a1.049,1.049,0,1,1-1.279-.322A.944.944,0,0,1,387.005,378.59Z" transform="translate(-379.504 -358.981)" fill="#8e3ddf"/>
      <path id="Path_79" data-name="Path 79" d="M399.188,357.841a.882.882,0,1,1-.991.495A.794.794,0,0,1,399.188,357.841Z" transform="translate(-386.004 -348.817)" fill="#8e3ddf"/>
      <path id="Path_80" data-name="Path 80" d="M398.029,339.875a.881.881,0,1,1-.689.867A.793.793,0,0,1,398.029,339.875Z" transform="translate(-385.624 -339.875)" fill="#8e3ddf"/>
      <path id="Path_81" data-name="Path 81" d="M393.392,368.631a.624.624,0,1,1-.719.312A.561.561,0,0,1,393.392,368.631Z" transform="translate(-383.252 -354.204)" fill="#8e3ddf"/>
      <path id="Path_82" data-name="Path 82" d="M395.765,351.135a.623.623,0,1,1-.456.637A.561.561,0,0,1,395.765,351.135Z" transform="translate(-384.609 -345.495)" fill="#8e3ddf"/>
    </g>
    <g id="Group_2010" data-name="Group 2010" transform="translate(82.401 152.389)">
      <path id="Path_83" data-name="Path 83" d="M340.362,321.328a1.718,1.718,0,1,1-.9-1.961A1.543,1.543,0,0,1,340.362,321.328Z" transform="translate(-335.013 -314.969)" fill="#8e3ddf"/>
      <path id="Path_84" data-name="Path 84" d="M347.811,329.727a1.26,1.26,0,1,1-.659-1.438A1.131,1.131,0,0,1,347.811,329.727Z" transform="translate(-339.147 -319.45)" fill="#8e3ddf"/>
      <path id="Path_85" data-name="Path 85" d="M359.419,326.522a1.26,1.26,0,1,1-1.128-1.111A1.133,1.133,0,0,1,359.419,326.522Z" transform="translate(-344.859 -318.088)" fill="#8e3ddf"/>
      <path id="Path_86" data-name="Path 86" d="M368.96,326.95a.93.93,0,1,1-1.129-.3A.837.837,0,0,1,368.96,326.95Z" transform="translate(-349.993 -318.663)" fill="#8e3ddf"/>
      <path id="Path_87" data-name="Path 87" d="M333.635,312.369a.829.829,0,1,1,.408-.932A.73.73,0,0,1,333.635,312.369Z" transform="translate(-332.797 -310.797)" fill="#8e3ddf"/>
      <path id="Path_88" data-name="Path 88" d="M375.224,319.637a.813.813,0,1,1-.989-.259A.731.731,0,0,1,375.224,319.637Z" transform="translate(-353.226 -315.037)" fill="#8e3ddf"/>
    </g>
    <g id="Group_2011" data-name="Group 2011" transform="translate(140.789 157.882)">
      <path id="Path_89" data-name="Path 89" d="M458.707,341.8a1.2,1.2,0,1,0,1.5-.127A1.078,1.078,0,0,0,458.707,341.8Z" transform="translate(-453.962 -331.581)" fill="#8e3ddf"/>
      <path id="Path_90" data-name="Path 90" d="M479.97,352.353a1.2,1.2,0,1,0,1.379-.6A1.074,1.074,0,0,0,479.97,352.353Z" transform="translate(-464.629 -336.706)" fill="#8e3ddf"/>
      <path id="Path_91" data-name="Path 91" d="M488.269,357.895a.885.885,0,1,0,.759-.813A.794.794,0,0,0,488.269,357.895Z" transform="translate(-468.782 -339.386)" fill="#8e3ddf"/>
      <path id="Path_92" data-name="Path 92" d="M459.872,349.654a.629.629,0,1,0,.774-.163A.568.568,0,0,0,459.872,349.654Z" transform="translate(-454.589 -335.563)" fill="#8e3ddf"/>
      <path id="Path_93" data-name="Path 93" d="M449.9,321.772a.848.848,0,1,0,.8.7A.763.763,0,0,0,449.9,321.772Z" transform="translate(-449.368 -321.764)" fill="#8e3ddf"/>
      <path id="Path_94" data-name="Path 94" d="M476.062,360.226a.63.63,0,1,0,.775-.164A.569.569,0,0,0,476.062,360.226Z" transform="translate(-462.67 -340.839)" fill="#8e3ddf"/>
      <path id="Path_95" data-name="Path 95" d="M453.225,332.026a.885.885,0,1,0,1.1.156A.794.794,0,0,0,453.225,332.026Z" transform="translate(-451.198 -326.806)" fill="#8e3ddf"/>
      <path id="Path_96" data-name="Path 96" d="M493.81,352.335a1.2,1.2,0,1,0,.879-1.221A1.075,1.075,0,0,0,493.81,352.335Z" transform="translate(-471.537 -336.387)" fill="#8e3ddf"/>
      <path id="Path_97" data-name="Path 97" d="M467.267,350.8a1.406,1.406,0,1,0,1.719-.407A1.263,1.263,0,0,0,467.267,350.8Z" transform="translate(-458.257 -335.973)" fill="#8e3ddf"/>
    </g>
    <g id="Group_2012" data-name="Group 2012" transform="translate(148.941 152.389)">
      <path id="Path_98" data-name="Path 98" d="M498.859,321.328a1.718,1.718,0,1,0,.9-1.961A1.544,1.544,0,0,0,498.859,321.328Z" transform="translate(-482.164 -314.969)" fill="#8e3ddf"/>
      <path id="Path_99" data-name="Path 99" d="M492.272,329.727a1.26,1.26,0,1,0,.66-1.438A1.132,1.132,0,0,0,492.272,329.727Z" transform="translate(-478.892 -319.45)" fill="#8e3ddf"/>
      <path id="Path_100" data-name="Path 100" d="M480.585,326.522a1.259,1.259,0,1,0,1.126-1.111A1.131,1.131,0,0,0,480.585,326.522Z" transform="translate(-473.099 -318.088)" fill="#8e3ddf"/>
      <path id="Path_101" data-name="Path 101" d="M471.734,326.95a.93.93,0,1,0,1.13-.3A.837.837,0,0,0,471.734,326.95Z" transform="translate(-468.657 -318.663)" fill="#8e3ddf"/>
      <path id="Path_102" data-name="Path 102" d="M507.544,312.369a.828.828,0,1,0-.409-.932A.729.729,0,0,0,507.544,312.369Z" transform="translate(-486.337 -310.797)" fill="#8e3ddf"/>
      <path id="Path_103" data-name="Path 103" d="M465.691,319.637a.812.812,0,1,0,.988-.259A.729.729,0,0,0,465.691,319.637Z" transform="translate(-465.643 -315.037)" fill="#8e3ddf"/>
    </g>
    <g id="Group_2013" data-name="Group 2013" transform="translate(135.918 166.884)">
      <path id="Path_104" data-name="Path 104" d="M452.6,369.221a1.406,1.406,0,1,0,1.736-.328A1.262,1.262,0,0,0,452.6,369.221Z" transform="translate(-446.056 -354.191)" fill="#8e3ddf"/>
      <path id="Path_105" data-name="Path 105" d="M462.518,378.128a1.085,1.085,0,1,0,.841-1.073A.977.977,0,0,0,462.518,378.128Z" transform="translate(-451.051 -358.346)" fill="#8e3ddf"/>
      <path id="Path_106" data-name="Path 106" d="M447.423,359.657a1.049,1.049,0,1,0,1.211.525A.945.945,0,0,0,447.423,359.657Z" transform="translate(-443.326 -349.64)" fill="#8e3ddf"/>
      <path id="Path_107" data-name="Path 107" d="M451.662,378.452a1.05,1.05,0,1,0,1.28-.322A.945.945,0,0,0,451.662,378.452Z" transform="translate(-445.61 -358.842)" fill="#8e3ddf"/>
      <path id="Path_108" data-name="Path 108" d="M440.012,357.705a.882.882,0,1,0,.992.5A.793.793,0,0,0,440.012,357.705Z" transform="translate(-439.642 -348.679)" fill="#8e3ddf"/>
      <path id="Path_109" data-name="Path 109" d="M441.234,339.736a.882.882,0,1,0,.689.869A.793.793,0,0,0,441.234,339.736Z" transform="translate(-440.085 -339.736)" fill="#8e3ddf"/>
      <path id="Path_110" data-name="Path 110" d="M446.222,368.493a.624.624,0,1,0,.719.313A.561.561,0,0,0,446.222,368.493Z" transform="translate(-442.807 -354.066)" fill="#8e3ddf"/>
      <path id="Path_111" data-name="Path 111" d="M443.9,351a.624.624,0,1,0,.456.637A.562.562,0,0,0,443.9,351Z" transform="translate(-441.504 -345.356)" fill="#8e3ddf"/>
    </g>
  </g>
</svg>
